<?xml version="1.0" encoding="utf-8"?>
<!-- Generator: Adobe Illustrator 19.2.1, SVG Export Plug-In . SVG Version: 6.00 Build 0)  -->
<svg version="1.1" id="Слой_1" xmlns="http://www.w3.org/2000/svg" xmlns:xlink="http://www.w3.org/1999/xlink" x="0px" y="0px"
	 viewBox="0 0 340 220" style="enable-background:new 0 0 340 220;" xml:space="preserve">
<style type="text/css">
	.st0{clip-path:url(#SVGID_2_);}
	.st1{clip-path:url(#SVGID_6_);}
	.st2{clip-path:url(#SVGID_10_);}
	.st3{clip-path:url(#SVGID_14_);}
	.st4{fill-rule:evenodd;clip-rule:evenodd;fill:#005E24;}
	.st5{fill-rule:evenodd;clip-rule:evenodd;fill:#002C69;}
	.st6{fill-rule:evenodd;clip-rule:evenodd;fill:#F07C00;}
	.st7{fill-rule:evenodd;clip-rule:evenodd;fill:#AE0B14;}
</style>
<g>
	<g>
		<defs>
			<path id="SVGID_1_" d="M137.5,29.1c0.2-0.1,0.4-0.1,0.5-0.2c4.3-1.5,8.8-2.8,13.6-3.8c13.5-2.9,28.5-3.6,42.8-0.8l0.1,0
				c0.3,0.1,0.5,0.1,0.8,0.2l0.2,0c0.2,0,0.5,0.1,0.7,0.1l0.2,0c0.3,0.1,0.6,0.1,0.9,0.2c13.7,3.1,26.5,9.8,37.1,19.6l-13.8,3.7
				l-17.8,4.8c-3.7-3.6-7.7-6.3-11.9-8.4l7.6-14.4l-15.8,11.2c-10.8-3.3-23-3.1-35.3-1.5L137.5,29.1z M137.5,29.1"/>
		</defs>
		<use xlink:href="#SVGID_1_"  style="overflow:visible;fill:#B3690E;"/>
		<clipPath id="SVGID_2_">
			<use xlink:href="#SVGID_1_"  style="overflow:visible;"/>
		</clipPath>
		<g class="st0">
			<defs>
				<rect id="SVGID_3_" x="137.4" y="22.4" width="97.2" height="30.7"/>
			</defs>
			<use xlink:href="#SVGID_3_"  style="overflow:visible;fill:#B3690E;"/>
			<clipPath id="SVGID_4_">
				<use xlink:href="#SVGID_3_"  style="overflow:visible;"/>
			</clipPath>
		</g>
	</g>
	<g>
		<defs>
			<path id="SVGID_5_" d="M245,58.2c9.1,22.9,4.7,44.3-11.7,66.7c-10.1,13.8-28.7,27.2-48.9,35l-0.3-3.1l-3-28.7
				c11.6-6.7,19.9-14.2,25.4-22.5l26.2-0.6l-20.2-12.1c1.8-6.1,2.3-12.9,1.7-19.6l18.3-8.9L245,58.2z M245,58.2"/>
		</defs>
		<use xlink:href="#SVGID_5_"  style="overflow:visible;fill:#E30016;"/>
		<clipPath id="SVGID_6_">
			<use xlink:href="#SVGID_5_"  style="overflow:visible;"/>
		</clipPath>
		<g class="st1">
			<defs>
				<rect id="SVGID_7_" x="180.9" y="58.2" width="68.9" height="101.8"/>
			</defs>
			<use xlink:href="#SVGID_7_"  style="overflow:visible;fill:#E30016;"/>
			<clipPath id="SVGID_8_">
				<use xlink:href="#SVGID_7_"  style="overflow:visible;"/>
			</clipPath>
		</g>
	</g>
	<g>
		<defs>
			<path id="SVGID_9_" d="M65.9,106.9c0-11.5,3.7-23.2,11.8-34.6l12.7,7.6c-2.9,6-4.3,11.7-4.4,16.5L65.9,106.9z M96,70.4l-17.2,0.2
				c0.9-1.3,1.8-2.6,2.7-3.8l0,0l0.1-0.1c0.1-0.2,0.3-0.4,0.4-0.5l0.2-0.2c0.1-0.2,0.2-0.3,0.4-0.5l0.2-0.2c0.2-0.2,0.3-0.4,0.4-0.6
				l0.1-0.1l0,0c0.2-0.2,0.3-0.4,0.5-0.7l0.2-0.2c0.1-0.1,0.2-0.3,0.4-0.4l0.2-0.2c0.1-0.2,0.3-0.3,0.4-0.5l0.2-0.2
				c0.2-0.2,0.4-0.4,0.5-0.6l0.1-0.2c0.1-0.2,0.3-0.3,0.4-0.5l0.2-0.2c0.1-0.1,0.2-0.3,0.4-0.4l0.2-0.2c0.1-0.2,0.3-0.3,0.4-0.5
				l0.1-0.1c0.2-0.2,0.4-0.4,0.6-0.6l0.2-0.2c0.1-0.1,0.3-0.3,0.4-0.4l0.2-0.2c0.1-0.1,0.3-0.3,0.4-0.4l0.2-0.2
				c0.2-0.2,0.4-0.4,0.6-0.6l0.2-0.2c0.1-0.1,0.3-0.3,0.4-0.4l0.2-0.2c0.1-0.1,0.3-0.3,0.4-0.4l0.2-0.2c0.1-0.1,0.3-0.3,0.4-0.4
				l0.2-0.2c0.2-0.2,0.4-0.4,0.6-0.5l0.2-0.2c0.1-0.1,0.3-0.2,0.4-0.4l0.2-0.2c0.1-0.1,0.3-0.2,0.4-0.3l0.2-0.2
				c0.2-0.2,0.3-0.3,0.5-0.5l0.2-0.2c0.2-0.1,0.3-0.3,0.4-0.4l0.3-0.2c0.1-0.1,0.2-0.2,0.4-0.3l0.2-0.2c0.1-0.1,0.3-0.3,0.4-0.4
				l0.2-0.1c0.2-0.2,0.4-0.3,0.6-0.5l0.2-0.2c0.1-0.1,0.3-0.2,0.4-0.3l0.3-0.2c0.1-0.1,0.3-0.2,0.4-0.3l0.2-0.2
				c0.2-0.1,0.3-0.3,0.5-0.4l0.3-0.2c0.1-0.1,0.3-0.2,0.4-0.3l0.3-0.2l0.4-0.3l0.3-0.2l0.4-0.3l0.3-0.2c0.2-0.2,0.4-0.3,0.6-0.5
				l0.2-0.1c0.2-0.1,0.3-0.2,0.5-0.3l0.3-0.2c0.1-0.1,0.3-0.2,0.4-0.3l0.3-0.2c0.1-0.1,0.3-0.2,0.4-0.3l0.3-0.2
				c0.2-0.1,0.4-0.3,0.5-0.4l0.2-0.1c0.2-0.1,0.3-0.2,0.5-0.3l0.2-0.2c0.2-0.1,0.3-0.2,0.5-0.3l0.2-0.1c0.2-0.1,0.4-0.3,0.6-0.4
				l0.2-0.1c0.1-0.1,0.3-0.2,0.4-0.3l0.3-0.2c0.1-0.1,0.3-0.2,0.4-0.3l0.3-0.2c0.2-0.1,0.3-0.2,0.5-0.3l0.2-0.1
				c0.2-0.1,0.4-0.3,0.7-0.4l0.2-0.1c0.2-0.1,0.3-0.2,0.4-0.3l0.3-0.2c0.1-0.1,0.3-0.2,0.4-0.3L112,40c0.2-0.1,0.4-0.3,0.7-0.4
				l0.2-0.1c0.2-0.1,0.4-0.2,0.5-0.3l0.3-0.2c0.2-0.1,0.3-0.2,0.5-0.3l0.3-0.1c0.2-0.1,0.3-0.2,0.5-0.3l0.2-0.1
				c0.2-0.1,0.4-0.2,0.6-0.3c2.4-1.3,4.8-2.4,7.3-3.5l0,13.4C112.4,53,103.3,60.4,96,70.4L96,70.4z M96,70.4"/>
		</defs>
		<use xlink:href="#SVGID_9_"  style="overflow:visible;fill:#004185;"/>
		<clipPath id="SVGID_10_">
			<use xlink:href="#SVGID_9_"  style="overflow:visible;"/>
		</clipPath>
		<g class="st2">
			<defs>
				<rect id="SVGID_11_" x="65.7" y="34.2" width="57.4" height="73"/>
			</defs>
			<use xlink:href="#SVGID_11_"  style="overflow:visible;fill:#004185;"/>
			<clipPath id="SVGID_12_">
				<use xlink:href="#SVGID_11_"  style="overflow:visible;"/>
			</clipPath>
		</g>
	</g>
	<g>
		<defs>
			<path id="SVGID_13_" d="M90.1,116.6l-22,5.4c2.1,10,8.5,19.6,18.3,28.6l12.8-23C95.3,124,92.4,120.3,90.1,116.6L90.1,116.6z
				 M86.6,150.6l7.9-5.2l16.5-10.8c11.8,5.1,25,6.7,39.6,4.5l7.2,12.9l7.2,12.9C136.2,170.9,109.8,166.7,86.6,150.6L86.6,150.6z
				 M86.6,150.6"/>
		</defs>
		<use xlink:href="#SVGID_13_"  style="overflow:visible;fill:#009035;"/>
		<clipPath id="SVGID_14_">
			<use xlink:href="#SVGID_13_"  style="overflow:visible;"/>
		</clipPath>
		<g class="st3">
			<defs>
				<rect id="SVGID_15_" x="67.8" y="116.5" width="97.2" height="51.1"/>
			</defs>
			<use xlink:href="#SVGID_15_"  style="overflow:visible;fill:#009035;"/>
			<clipPath id="SVGID_16_">
				<use xlink:href="#SVGID_15_"  style="overflow:visible;"/>
			</clipPath>
		</g>
	</g>
	<path class="st4" d="M128.5,109.7l21.6-25.7l39.3,125.2L128.5,109.7z M128.5,109.7"/>
	<path class="st5" d="M150.1,83.9L13.9,134.2l108.6-64L150.1,83.9z M150.1,83.9"/>
	<path class="st6" d="M168,61.5l-17.8,22.5L119.5,6.9L168,61.5z M168,61.5"/>
	<path class="st7" d="M180.9,96.4l-30.8-12.5l167.2-61L180.9,96.4z M180.9,96.4"/>
</g>
</svg>
