<?xml version="1.0" encoding="utf-8"?>
<!-- Generator: Adobe Illustrator 19.2.1, SVG Export Plug-In . SVG Version: 6.00 Build 0)  -->
<svg version="1.1" id="Слой_1" xmlns="http://www.w3.org/2000/svg" xmlns:xlink="http://www.w3.org/1999/xlink" x="0px" y="0px"
	 viewBox="0 0 638 27.5" style="enable-background:new 0 0 638 27.5;" xml:space="preserve">
<style type="text/css">
	.st0{fill:#024BA5;}
</style>
<polygon class="st0" points="210.5,9.1 212,12.2 215.3,12.6 212.9,15 213.5,18.3 210.5,16.8 207.5,18.3 208.1,15 205.6,12.6 
	209,12.2 "/>
<polygon class="st0" points="234.8,9.1 236.3,12.2 239.6,12.6 237.2,15 237.8,18.3 234.8,16.8 231.8,18.3 232.4,15 229.9,12.6 
	233.3,12.2 "/>
<polygon class="st0" points="259.1,9.1 260.6,12.2 263.9,12.6 261.5,15 262.1,18.3 259.1,16.8 256.1,18.3 256.6,15 254.2,12.6 
	257.6,12.2 "/>
<polygon class="st0" points="283.3,9.1 284.8,12.2 288.2,12.6 285.8,15 286.3,18.3 283.3,16.8 280.3,18.3 280.9,15 278.5,12.6 
	281.8,12.2 "/>
<polygon class="st0" points="307.6,9.1 309.1,12.2 312.5,12.6 310,15 310.6,18.3 307.6,16.8 304.6,18.3 305.2,15 302.8,12.6 
	306.1,12.2 "/>
<polygon class="st0" points="331.9,9.1 333.4,12.2 336.7,12.6 334.3,15 334.9,18.3 331.9,16.8 328.9,18.3 329.5,15 327,12.6 
	330.4,12.2 "/>
<polygon class="st0" points="356.2,9.1 357.7,12.2 361,12.6 358.6,15 359.2,18.3 356.2,16.8 353.2,18.3 353.7,15 351.3,12.6 
	354.7,12.2 "/>
<polygon class="st0" points="380.4,9.1 381.9,12.2 385.3,12.6 382.9,15 383.4,18.3 380.4,16.8 377.4,18.3 378,15 375.6,12.6 
	378.9,12.2 "/>
<polygon class="st0" points="404.7,9.1 406.2,12.2 409.6,12.6 407.1,15 407.7,18.3 404.7,16.8 401.7,18.3 402.3,15 399.9,12.6 
	403.2,12.2 "/>
<polygon class="st0" points="429,9.1 430.5,12.2 433.8,12.6 431.4,15 432,18.3 429,16.8 426,18.3 426.6,15 424.2,12.6 427.5,12.2 
	"/>
<rect x="9" y="12.2" class="st0" width="186" height="3"/>
<rect x="443.5" y="12.2" class="st0" width="186" height="3"/>
</svg>
