<?xml version="1.0" encoding="utf-8"?>
<!-- Generator: Adobe Illustrator 19.2.1, SVG Export Plug-In . SVG Version: 6.00 Build 0)  -->
<svg version="1.1" id="Слой_1" xmlns="http://www.w3.org/2000/svg" xmlns:xlink="http://www.w3.org/1999/xlink" x="0px" y="0px"
	 viewBox="0 0 218.4 116.5" style="enable-background:new 0 0 218.4 116.5;" xml:space="preserve">
<style type="text/css">
	.st0{fill:#3454A7;}
</style>
<g>
	<g>
		<path d="M4.4,112.1c-4-6.5-4.8-12.7-2.4-18.3c6.5-14.9,33.7-21.9,45.1-24.3c25.3-5.2,76.2-11.6,132.5,3.5
			c19.5,5.3,32.9-3,36.1-13.8c3-10.1-3-23.3-23.2-29.8c-1.4-0.4-2.7-0.8-4.1-1.2c6.8,10,6.5,19.8-1.1,26.4
			c-7.6,6.7-21.8,8.6-29.3,1.1c-6.5-6.5-8.3-16.6-4.1-23.4c2.3-3.8,9.5-11.2,29.4-7.3C163.9,2.7,136.2,6.5,135.9,6.5l-0.3-2
			c0.3,0,30.8-4.2,50.9,21.2c2.1,0.5,4.2,1.1,6.6,1.9c21.5,6.9,27.8,21.2,24.5,32.2C214.1,71.6,199.8,80.6,179,75
			c-55.8-15-106.4-8.6-131.5-3.5C36.4,73.8,9.9,80.6,3.9,94.6c-2.2,5-1.4,10.6,2.2,16.5L4.4,112.1z M172.8,25.9
			c-8.2,0-14.1,2.5-17.1,7.5c-3.7,6.1-2,15.1,3.8,20.9c6.1,6.1,19,5.5,26.6-1.1c7.2-6.4,7-15.7-0.6-25.5l-0.1-0.1
			C180.8,26.4,176.6,25.9,172.8,25.9z"/>
		<g>
			<path d="M8.8,116.5c-2.5-1.7-6-3.5-8.8-4.2l4.9-1.4l2.9-4.2C7.4,109.7,8,113.6,8.8,116.5z"/>
		</g>
	</g>
	<circle class="st0" cx="135.8" cy="5.3" r="5.3"/>
</g>
</svg>
