<?xml version="1.0" encoding="utf-8"?>
<!-- Generator: Adobe Illustrator 19.2.1, SVG Export Plug-In . SVG Version: 6.00 Build 0)  -->
<svg version="1.1" id="Слой_1" xmlns="http://www.w3.org/2000/svg" xmlns:xlink="http://www.w3.org/1999/xlink" x="0px" y="0px"
	 viewBox="0 0 76.8 128.2" style="enable-background:new 0 0 76.8 128.2;" xml:space="preserve">
<style type="text/css">
	.st0{fill:#3454A7;}
</style>
<g>
	<g>
		<path d="M11.3,125.1c-1.4,0-2.9-0.1-4.4-0.2l0.1-2c23.1,1.7,39.8-10.7,41.9-23.1c0.2-1.2,0.3-2.5,0.4-3.8
			c-8.5,3.9-17.8,4.9-25.6,2.9c-4.6-1.2-11.1-4.6-14.4-10.5C7.2,84.7,6.8,80.8,8,76.6c3.1-10.2,12.5-11.4,20.5-11.2
			c5.4,0.1,10.7,3,14.9,8.1c4.4,5.3,7.2,12.5,7.8,19.3c8.3-4.5,15.6-12,19.3-22.3c2.1-5.8,1.9-12.9-0.3-19.7
			c-3,6.2-7.2,9.9-11.4,11.5c-7.7,2.9-19.8,2.3-26.7-3.6c-4.2-3.6-5.8-8.6-4.6-14.5c2.7-13.1,16.6-15.4,23.6-14.8
			c6.2,0.5,12.4,4.9,16.9,12c0.9,1.4,1.6,2.8,2.3,4.2c3-9.1,3.8-22.3,0.2-40.5l2-0.4c3.9,19.8,2.7,34.1-1,43.5c3,7.8,3.5,16.3,1,23
			c-4,11-12,19-21.1,23.7c0,1.7-0.1,3.5-0.4,5.1C48.8,112.6,33.2,125.1,11.3,125.1z M27.4,67.5c-7,0-14.9,1.3-17.5,9.8
			c-1.1,3.6-0.7,7,1.1,10.2c2.8,5,8.7,8.4,13.2,9.5c7.7,2,16.8,0.8,25.1-3.1c-0.4-6.6-3.1-13.8-7.4-19c-3.9-4.7-8.6-7.3-13.4-7.4
			C28.1,67.5,27.8,67.5,27.4,67.5z M49,31.4c-6.7,0-17.3,2.7-19.5,13.3c-1.1,5.2,0.2,9.4,3.9,12.6c6.4,5.5,17.6,6,24.7,3.3
			c4.2-1.6,8.4-5.5,11.2-12.2c-0.8-2-1.8-3.9-3-5.8C62.1,36,56.5,32,50.9,31.5C50.3,31.4,49.7,31.4,49,31.4z"/>
		<g>
			<polygon points="0,123 10.4,120.1 7.5,123.9 9.4,128.2 			"/>
		</g>
	</g>
	<circle class="st0" cx="71.5" cy="5.3" r="5.3"/>
</g>
</svg>
