<?xml version="1.0" encoding="utf-8"?>
<!-- Generator: Adobe Illustrator 19.2.1, SVG Export Plug-In . SVG Version: 6.00 Build 0)  -->
<svg version="1.1" id="Слой_1" xmlns="http://www.w3.org/2000/svg" xmlns:xlink="http://www.w3.org/1999/xlink" x="0px" y="0px"
	 viewBox="0 0 334.3 96.3" style="enable-background:new 0 0 334.3 96.3;" xml:space="preserve">
<style type="text/css">
	.st0{fill:#3454A7;}
</style>
<g>
	<g>
		<path d="M9.7,93.8C-1.5,90.2-0.8,78.8,1,69.2v-0.1C15.4,26,88.5,35.5,91.6,35.9c26.5,3.6,70.8,1.2,90.5-7.4
			c3.4-1.5,5.8-3.5,7.3-5.8c-8,1.3-14,2.1-16.9,2.2c-9.3,0.3-13.1-3.3-13.6-6.7c-0.6-4.2,3.4-10,13.8-12.7c12-3.2,18.4,1.7,20.2,6.9
			c0.8,2.4,0.9,5.1,0,7.8c5-0.8,10.8-1.8,16.9-2.8c38-6.3,95.4-15.8,119.3-13.4l-0.2,2c-23.6-2.4-80.9,7.1-118.7,13.4
			c-6.6,1.1-12.8,2.1-18.1,3c-1.6,3.1-4.6,6-9.1,8c-20,8.8-64.8,11.2-91.5,7.6c-3-0.4-74.5-9.7-88.4,31.8C0.6,82.9,2.8,89.6,10.4,92
			L9.7,93.8z M179.8,6.5c-1.9,0-4.1,0.3-6.6,0.9c-8.8,2.3-12.9,7-12.4,10.5c0.5,3.3,4.9,5.2,11.6,5c3-0.1,9.5-1,18.2-2.4
			c1.1-2.6,1.2-5.2,0.4-7.5C189.9,9.7,186.3,6.5,179.8,6.5z"/>
		<g>
			<polygon points="17,94 6.5,96.3 9.5,92.7 7.9,88.3 			"/>
		</g>
	</g>
	<circle class="st0" cx="329" cy="5.3" r="5.3"/>
</g>
</svg>
