<?xml version="1.0" encoding="utf-8"?>
<!-- Generator: Adobe Illustrator 19.2.1, SVG Export Plug-In . SVG Version: 6.00 Build 0)  -->
<svg version="1.1" id="Слой_1" xmlns="http://www.w3.org/2000/svg" xmlns:xlink="http://www.w3.org/1999/xlink" x="0px" y="0px"
	 viewBox="0 0 209.7 152.5" style="enable-background:new 0 0 209.7 152.5;" xml:space="preserve">
<style type="text/css">
	.st0{fill:#3454A7;}
</style>
<g>
	<g>
		<path d="M77.4,150.2c-10.5,3.3-20.5,3.4-27.7-1.5c-3.2-2.2-6-5.5-8.2-9.6c-14.9,2.3-29.8-0.4-35.9-9.8
			c-5.7-8.7-12.1-26.2,8.6-45.4c4.5-4.2,8.8-8,12.9-11.6c3.4-3,6.6-5.9,9.5-8.5c-9,0.3-15.9-1.2-20.6-4.6c-5.4-3.8-8.4-9.4-8.7-15.6
			c-0.2-6.1,2.3-12.3,6.5-15.7c7.6-6.3,17.5-9.8,25.3-9c4.3,0.4,7.7,2.2,10,5.1c11.3,14.2,6,24.4-7,37.3C71,58.2,119.5,39,187,4
			l0.9,1.8C130.6,35.5,86.4,54,56.5,60.8c-6.2,1.4-11.8,2.3-16.7,2.7c-3.4,3.2-7.2,6.6-11.3,10.2s-8.3,7.4-12.8,11.6
			C-4,103.5,2,120,7.4,128.2c5.5,8.4,19.3,10.9,33.3,8.9c-2.4-5-3.9-11-4.2-17.2c-0.7-12.5,3.3-23.3,10.9-29.8
			c8.4-7.1,20.9-8.7,29.6-7.2c6.2,1.1,10.8,3.8,12.9,7.5c6.1,10.9-9,31.3-25.6,40.9c-6,3.5-13.2,6.1-20.6,7.4c2,3.5,4.5,6.4,7.3,8.3
			c17.1,11.6,52.5-7.6,68.4-30.9c6.9-10.1,8.6-18.4,10.2-26.4c1.6-7.9,3.2-15.4,9.6-23.5c11.9-15.1,33.3-23,63.6-23.3v2
			c-29.7,0.3-50.5,7.9-62,22.5c-6.1,7.8-7.6,15-9.2,22.7c-1.7,8.2-3.5,16.7-10.5,27.1C110.8,132.1,93.5,145,77.4,150.2z M42.5,136.8
			c7.3-1.3,14.6-3.7,20.6-7.2c15.3-8.9,30.1-28.7,24.8-38.2c-1.7-3.1-5.9-5.5-11.5-6.5c-8.2-1.5-20,0-27.9,6.7
			c-7.1,6-10.8,16.3-10.2,28.2C38.6,126,40.1,131.9,42.5,136.8z M28.1,22.2c-4.6,1.5-9.2,3.9-13.1,7.1c-3.6,3-5.9,8.6-5.7,14.1
			c0.1,4,1.6,9.7,7.8,14.1c4.8,3.4,12,4.7,21.8,4c13.9-13.2,19.4-22.8,8.6-36.4c-2-2.5-4.9-4-8.7-4.4C35.5,20.5,31.8,21,28.1,22.2z"
			/>
		<g>
			<polygon points="209.7,44 199.8,48 202.1,44 199.8,39.9 			"/>
		</g>
	</g>
	<ellipse transform="matrix(0.9527 -0.3039 0.3039 0.9527 7.2533 57.2085)" class="st0" cx="187.4" cy="5.3" rx="5.3" ry="5.3"/>
</g>
</svg>
