<?xml version="1.0" encoding="utf-8"?>
<!-- Generator: Adobe Illustrator 19.2.1, SVG Export Plug-In . SVG Version: 6.00 Build 0)  -->
<svg version="1.1" id="Слой_1" xmlns="http://www.w3.org/2000/svg" xmlns:xlink="http://www.w3.org/1999/xlink" x="0px" y="0px"
	 viewBox="0 0 159.8 74.1" style="enable-background:new 0 0 159.8 74.1;" xml:space="preserve">
<style type="text/css">
	.st0{fill:#3454A7;}
</style>
<g>
	<g>
		<path d="M65.2,74.1c-33.8,0-52.9-8.1-55.4-23.5c-0.7-4.1-0.5-8.3,0.4-12.1C1.3,25.5,3.7,4.6,3.8,4.3l2,0.3c0,0.3-2.2,19,5.2,31.3
			c0.9-2.8,2.3-5.4,4.1-7.6c3.3-4.2,7.8-6.6,12.7-6.9c4.1-0.3,8.2,1.3,11.2,4.4c3,2.9,4.5,6.8,4.3,10.7c-0.5,9.6-8.2,11.4-16.4,11.9
			h-0.1h-0.1c-6.6-0.9-11.4-3.8-14.8-7.8c-0.5,3.1-0.6,6.4-0.1,9.7c3.1,19.5,34.9,22.5,61,21.7c27.4-0.9,63.1-10.3,80.4-18.5
			l0.9,1.8c-17.5,8.3-53.5,17.8-81.2,18.7C70.2,74.1,67.7,74.1,65.2,74.1z M12.4,38.1c3.2,4.3,7.8,7.5,14.4,8.4
			c8.4-0.6,14.1-2.5,14.5-10.1c0.2-3.3-1.2-6.6-3.7-9.2c-2.6-2.6-6.2-4-9.7-3.8c-4.4,0.3-8.3,2.4-11.3,6.2
			C14.7,32.1,13.3,35,12.4,38.1z"/>
		<g>
			<polygon points="159.8,51 152.9,59.3 153.1,54.6 149.1,52.1 			"/>
		</g>
	</g>
	<circle class="st0" cx="5.3" cy="5.3" r="5.3"/>
</g>
</svg>
