<?xml version="1.0" encoding="utf-8"?>
<!-- Generator: Adobe Illustrator 19.2.1, SVG Export Plug-In . SVG Version: 6.00 Build 0)  -->
<svg version="1.1" id="Слой_1" xmlns="http://www.w3.org/2000/svg" xmlns:xlink="http://www.w3.org/1999/xlink" x="0px" y="0px"
	 viewBox="0 0 294.6 243.2" style="enable-background:new 0 0 294.6 243.2;" xml:space="preserve">
<style type="text/css">
	.st0{fill:#FCB919;}
</style>
<path class="st0" d="M292,102.4c-6-19.3-23.3-16.7-31.3-12.7c-8,4-15.3,14-19.3-2s5.3-60.7,10.7-76c-19.3-8-52.7-12-68.7-11.3
	s-16,13.3-11.3,17.3s24.7,34.7-25.3,35.3S118,16.4,118,16.4s8.7-15.3-3.3-16c-31.3-3.3-78,12.7-78,12.7c10,28,14,43.3,15.3,67.3
	c0.7,23.3-14,17.3-24,11.3s-28-10-28,28.7s18,36.7,32,26.7s16,2.7,19.3,11.3c3.3,8.7,0.7,45.3-11.3,69.3c30,13.3,66.7,17.3,78.7,10
	s3.3-11.3,1.3-15.3s-4.7-13.3-4-16s-3.3-16,34-17.3s32,28,24,32s-5.3,23.3,7.3,22c45.3-2.7,57.3-8,73.3-15.3
	c-12-28.7-12.7-58.7-12-70.7s9.3-16,16.7-10.7c16,13.3,28.7,4,30.7-1.3S298,121.7,292,102.4z M166.5,157.6c-1.3,4-2.9,7.9-5.7,11.1
	c-1.2,1.4-2.8,2.6-4.4,3.7c-4.7,3.1-9.8,5.5-15.1,7.6c-2.3,0.9-4.7,1.3-7.2,1.3c-14.6,0-29.2,0-43.9,0c-0.2,0-0.5,0-0.7,0
	c-1.9,0.1-3.5-0.5-4.4-2.3c0-0.6,0-1.2,0-1.8c1.1-2.8,2.1-5.6,3.2-8.4c2.4-6.5,4.8-12.9,7.2-19.4c2-5.3,3.9-10.6,5.9-16
	c2.1-5.7,4.1-11.5,6.4-17.1c2-5,5.4-8.9,9.8-11.9s8.8-6,13.3-9c0.3-0.2,0.6-0.4,1.1-0.6c0,8.2,0,16.3,0,24.5c0.5,0,0.9,0,1.3,0
	c11.1,0,22.1,0,33.2,0c2.9,0,5.4,0.9,7.3,3.1c2.9,3.5,2,8.9-2,11.2c-1.6,1-3.4,1.3-5.3,1.3c-6.5,0-13.1,0-19.6,0
	c-1,0-1.2,0.3-1.2,1.2c0.1,3.3-0.1,6.7,0.1,10c0.1,2.6-0.6,4.8-1.8,7.1c-2.6,4.9-6,9.1-9.9,13c-0.8,0.8-1.2,1.8-0.8,2.9
	c0.3,1,1.1,1.6,2.1,1.5c0.8,0,1.7-0.3,2.2-0.9c4-3.9,7.6-8.3,10.3-13.2c0.4-0.8,0.7-1.6,1.2-2.4c0.2-0.3,0.6-0.6,1-0.6
	c5.6,0,11.3,0,16.9,0c0.2,0,0.4,0.1,0.7,0.1C167.2,155.1,166.9,156.4,166.5,157.6z M190.2,152c-1.2,1.9-2.9,3.1-5.1,3.1
	c-4.4,0.1-8.8,0-13.3,0c-0.1,0-0.2-0.1-0.3-0.1c0.3-1.6,0.6-3.3,1-5c-2,0-3.9,0-6,0c0.7-1.4,1.3-2.7,0.6-4.1
	c-0.4-0.7-0.9-1.5-1.6-1.9c-1.4-1.1-3.3-0.8-4.7,0.4c-1.5,1.3-1.6,3.1-0.4,5.5c-3.6,0-7.1,0-10.7,0c0.6-4,0-8,0.4-12.1
	c0.4,0,0.8,0,1.2,0c9.5,0,19.1,0,28.6,0c2.2,0,2.7-0.4,2.7-2.6c0-20.1,0-40.2,0-60.3c0-2.2-0.5-2.7-2.7-2.7c-10.9,0-21.8,0-32.7,0
	c-2.1,0-2.6,0.5-2.6,2.6c0,13.2,0,26.3,0,39.5c0,1.6,0.2,1.5-1.5,1.5c-1.9,0-3.8,0-5.7,0c-0.4,0-0.7,0-1.2,0c0-0.5,0-0.9,0-1.3
	c0-15.2,0-30.4,0-45.6c0-4.6,2.6-7.1,7.1-7.1c13.6,0,27.2,0,40.8,0c3.4,0,5.9,1.7,6.7,4.6c0.2,0.8,0.2,1.6,0.2,2.4
	c0,26.3,0,52.6,0,78.9C191,149.2,191,150.7,190.2,152z M193.3,112.9c0-0.7,0.2-1,0.9-1c1.9,0.1,3.9,0,5.8,0.1
	c3.4,0.2,5.7,2.7,5.9,6.1c0.3,4.8-2.4,7.6-7.2,7.6c-1.8,0-3.6,0-5.4,0c0-0.4-0.1-0.6-0.1-0.8C193.3,120.9,193.3,116.9,193.3,112.9z
	 M201.3,109.2c-0.3,0.1-0.6,0.2-0.9,0.2c-2.3,0-4.7,0-7.1,0c0-0.3-0.1-0.5-0.1-0.8c0-4,0-8,0-12c0-0.7,0.2-1,1-1c1.8,0,3.6,0,5.4,0
	c3.3,0.1,5.9,2.4,6.2,5.4C206.4,105.3,204.8,108.2,201.3,109.2z M203.4,140.6c-1,0.7-2.4,1.1-3.6,1.3c-1.9,0.2-3.8,0-5.7,0.1
	c-0.6,0-0.8-0.3-0.8-0.8c0-2,0-4.1,0-6.1s0-4,0-5.9c0-0.7,0.2-0.9,0.9-0.9c2,0.1,4.1,0,6.1,0.1c3.1,0.3,5.4,2.7,5.7,5.9
	C206.2,136.7,205.7,139.1,203.4,140.6z M209.3,79.3c-0.7,1.5-1.3,3.1-2.3,4.4c-1.1,1.6-2.7,2.6-4.7,3c-2.9,0.5-5.9,1.1-8.9,1.7
	c0-4.9,0-9.7,0-14.6c2.3-0.3,4.6-0.5,6.9-0.8c1.2-0.1,2.4-0.3,3.6-0.5c2.6-0.4,4.2,0.5,5.2,3c0.1,0.1,0.2,0.3,0.3,0.4
	C209.3,77.1,209.3,78.2,209.3,79.3z"/>
</svg>
