<?xml version="1.0" encoding="utf-8"?>
<!-- Generator: Adobe Illustrator 19.2.1, SVG Export Plug-In . SVG Version: 6.00 Build 0)  -->
<svg version="1.1" id="Слой_1" xmlns="http://www.w3.org/2000/svg" xmlns:xlink="http://www.w3.org/1999/xlink" x="0px" y="0px"
	 viewBox="0 0 242.9 294.3" style="enable-background:new 0 0 242.9 294.3;" xml:space="preserve">
<style type="text/css">
	.st0{fill:#FF2600;}
</style>
<g>
	<path class="st0" d="M177.1,136c-2.1,0-3.9,1.7-3.8,3.8c0,2.1,1.7,3.8,3.8,3.8s3.9-1.8,3.9-3.9C180.8,137.7,179.1,136,177.1,136z"
		/>
	<path class="st0" d="M224.6,175.4c-10.7,6.7-33.3,10-36.7-29.3c0-13.3,4-28.7,13.3-32.7s16,1.3,20.7,4.7c4.7,3.3,16,12.7,20-8
		s-4.7-54-11.3-69.3c0,0-44,16-76,11.3c0,0-19.3-6.7-6.7-20.7c12.7-14,6.7-32.7-21.3-31.3c-28,1.3-39.3,10-35.3,23.3
		s17.3,24.7,0,28.7s-62.7-4-80-13.3c-4,15.3-16,58.7-9.3,80.7c4,8,11.3,1.3,21.3-4.7s27.3,3.3,28.7,18c1.3,14.7,1.3,28.7-6,44
		c-2,4.7-17.3,6-25.3-2c-6-4.7-18-3.3-18.7,9.3c-0.7,12.7,3.3,54.7,12,70.7c14-8,49.3-14.7,67.3-14s22,13.3,15.3,21.3
		c-6.7,8-13.3,34.7,23.3,32c36.7-2.7,43.3-12,27.3-34.7c-7.3-8.7-2-18,14-17.3s44,1.3,66.7,12c8-14.7,16-45.3,14-66.7
		S235.3,168.7,224.6,175.4z M160.4,179c-0.1,5-2.1,9.5-5.9,12.9c-2.1,1.9-4.6,3.1-7.4,3.8c-5,1.2-9.9,1.1-14.8-0.3
		c-4.8-1.4-8.6-4.1-10.9-8.8c-1.8-3.6-4-7-6-10.6c-2.8-5-5.6-9.9-8.3-15c-0.6-1.1-0.9-2.5-1-3.8c0-2.5,2-4,4.4-3.9
		c2,0.1,3.3,1.2,4.5,2.6c1.8,2.1,3.5,4.2,5.2,6.4c0.1,0.1,0.2,0.2,0.5,0.6c0-0.6,0.1-1,0.1-1.4c0-12.5,0-25,0-37.5
		c0-1.1,0.3-2.3,0.8-3.3c0.9-1.7,3.1-2.3,5.3-1.9c1.8,0.4,3.2,1.9,3.4,3.8c0.1,0.5,0.1,1,0.1,1.5c0,7.9,0,15.8,0.1,23.7
		c0,0.3,0,0.6,0,1c0.1,0,0.1,0,0.2,0c0.1-1.4,0-2.8,0.2-4.2c0.3-2.4,2.3-4,4.8-4c2.5,0.1,4.4,1.8,4.6,4.2c0.1,1.1,0,2.3,0.1,3.4
		c0,0.3,0.1,0.6,0.1,1c0.1,0,0.2,0,0.3,0c0-0.2,0.1-0.4,0.1-0.7c0-1,0-2.1,0-3.1c0-2.8,2-4.8,4.7-4.8s4.7,1.9,4.8,4.6
		c0.1,1.3,0,2.6,0,3.9c0.1,0,0.2,0,0.3,0.1c0.1-0.2,0.3-0.5,0.3-0.7c0-1.1,0-2.2,0-3.2c0.1-2.8,2-4.7,4.7-4.7s4.7,1.9,4.7,4.6
		C160.5,156.6,160.6,167.8,160.4,179z M182.8,175.5c-0.4,0.9-0.6,1.9-1.1,2.7c-1.1,2-2.9,3.4-5.1,3.6c-3.5,0.2-7,0.1-10.4,0.1
		c0-3.7,0-7.4,0-11.3c1.5,0,2.8-0.1,4,0c0.9,0.1,1.1-0.3,1.1-1.2c0-15,0-30,0-45c0-4.6,0-9.3,0-13.9c0-0.4,0-0.8,0-1.3
		c-33.2,0-66.4,0-99.7,0c0,0.4,0,0.7,0,1c0,19.7,0,39.3,0,59c0,1.3,0,1.3,1.3,1.3c10.5,0,21,0,31.4,0c0.8,0,1.3,0.2,1.7,1
		c1.8,3.4,3.7,6.9,5.7,10.5c-0.5,0-0.9,0-1.3,0c-13.9,0-27.9,0-41.8,0c-4.5,0-6.9-1.8-8.3-6.1c0-0.1-0.1-0.2-0.2-0.4
		c0-23.8,0-47.6,0-71.3c0.2-0.5,0.3-1.2,0.6-1.6c0.7-1,1.3-2.1,2.1-3c1.6-1.6,3.6-1.9,5.8-1.9c35.2,0,70.4,0,105.6,0
		c0.6,0,1.2,0,1.9,0.1c1.9,0.3,3.6,1,4.7,2.6c0.8,1.1,1.3,2.5,1.9,3.8C182.8,128,182.8,151.7,182.8,175.5z"/>
</g>
</svg>
