<?xml version="1.0" encoding="utf-8"?>
<!-- Generator: Adobe Illustrator 19.2.1, SVG Export Plug-In . SVG Version: 6.00 Build 0)  -->
<svg version="1.1" id="Слой_1" xmlns="http://www.w3.org/2000/svg" xmlns:xlink="http://www.w3.org/1999/xlink" x="0px" y="0px"
	 viewBox="0 0 253 304" style="enable-background:new 0 0 253 304;" xml:space="preserve">
<style type="text/css">
	.st0{fill:#23B731;}
</style>
<g>
	<path class="st0" d="M154.9,123.9c3.9,0,7.2-3.3,7.3-7.3c0.1-4-3.1-7.3-7.1-7.4c-4.2-0.1-7.6,3.1-7.6,7.2
		C147.4,120.4,150.9,124,154.9,123.9z"/>
	<path class="st0" d="M103.6,119.3c0-1,0-1.9,0-3.4c-1.6,0.6-2.6,0.9-3.6,1.3c-9.9,4-19.7,8.1-29.6,11.9c-2.2,0.9-2.9,1.9-2.9,4.2
		c0.1,22.6,0.1,45.2,0.1,67.7c0,1,0,2,0,3.4c11.4-4.6,22.2-9.1,33.1-13.3c2.1-0.8,2.9-1.8,2.9-4.2
		C103.5,164.4,103.6,141.9,103.6,119.3z"/>
	<path class="st0" d="M229.2,180.4c-10.7,6.7-33.3,10-36.7-29.3c0-13.3,4-28.7,13.3-32.7s16,1.3,20.7,4.7c4.7,3.3,16,12.7,20-8
		s-4.7-54-11.3-69.3c0,0-44,16-76,11.3c0,0-19.3-6.7-6.7-20.7c12.7-14,6.7-32.7-21.3-31.3c-28,1.3-39.3,10-35.3,23.3
		c4,13.3,17.3,24.7,0,28.7s-62.7-4-80-13.3c-4,15.3-16,58.7-9.3,80.7c4,8,11.3,1.3,21.3-4.7s27.3,3.3,28.7,18
		c1.3,14.7,1.3,28.7-6,44c-2,4.7-17.3,6-25.3-2c-6-4.7-18-3.3-18.7,9.3c-0.7,12.7,3.3,54.7,12,70.7c14-8,49.3-14.7,67.3-14
		s22,13.3,15.3,21.3s-13.3,34.7,23.3,32c36.7-2.7,43.3-12,27.3-34.7c-7.3-8.7-2-18,14-17.3s44,1.3,66.7,12c8-14.7,16-45.3,14-66.7
		S239.9,173.7,229.2,180.4z M148.1,94.6c9.7-3,20.1,0.7,25.8,9.1c5.7,8.4,5.5,19.7-1.2,27.2c-4.9,5.4-7.5,11.7-9.7,18.4
		c-1.7,5.2-3.3,10.4-5.2,15.5c-0.4,1.2-2,2.9-2.7,2.8c-1.2-0.2-2.6-1.6-3.1-2.8c-2.3-6.2-4.3-12.5-6.3-18.8
		c-1.8-5.4-4.2-10.4-8.3-14.6c-3.9-4-5.5-9.2-5.5-14.7C131.9,106.4,138.4,97.6,148.1,94.6z M186.3,193.9
		c-12.4,4.9-24.8,10.1-37.2,15c-1.5,0.6-3.7,0.6-5.2,0c-11.8-4.6-23.5-9.5-35.4-14.1c-1.5-0.6-3.7-0.6-5.2,0
		c-12.3,4.8-24.5,9.8-36.7,14.8c-1,0.4-2,0.7-3.4,1.3c0-1.4,0-2.4,0-3.4c0-25.5,0-51-0.1-76.6c0-2.3,0.5-3.4,2.8-4.3
		c12.6-5,25.2-10.2,37.8-15.1c1.3-0.5,3.1-0.5,4.4,0c5.5,2,10.8,4.5,16.3,6.5c3,1.1,4,2.9,3.8,6.1c-6.6-2.6-13.1-5.2-19.9-8
		c0,1.3,0,2.2,0,3c0,22.8,0,45.6,0,68.3c0,2,0.5,3.1,2.5,3.8c11,4.3,21.9,8.8,33.2,13.4c0-15.8,0-31.3,0-46.7
		c0.3-0.1,0.6-0.1,0.9-0.2c1.2,4.2,3.3,8.5,3.5,12.7c0.5,10.1,0.2,20.3,0.2,30.5c0,1.1,0,2.1,0,3.5c1-0.3,1.7-0.4,2.4-0.7
		c10.5-4.2,21-8.5,31.5-12.7c1.5-0.6,2.1-1.3,2.1-3c-0.1-23.5,0-46.9,0-70.4c0-0.4-0.1-0.7-0.1-1.3c-0.8,0.1-1.6,0.1-2.3,0.2
		c-1.5-3.2,0.8-5.4,6.8-6.4c0,1,0,2,0,2.9c0,25.6,0,51.2,0.1,76.8C189,192,188.4,193,186.3,193.9z"/>
</g>
</svg>
