<?xml version="1.0" encoding="utf-8"?>
<!-- Generator: Adobe Illustrator 19.2.1, SVG Export Plug-In . SVG Version: 6.00 Build 0)  -->
<svg version="1.1" id="Слой_1" xmlns="http://www.w3.org/2000/svg" xmlns:xlink="http://www.w3.org/1999/xlink" x="0px" y="0px"
	 viewBox="0 0 302 255" style="enable-background:new 0 0 302 255;" xml:space="preserve">
<style type="text/css">
	.st0{fill:#2178BA;}
</style>
<g>
	<path class="st0" d="M141,113.2c-0.1-0.1-0.1-0.2-0.2-0.4c-2.8,1.7-5.6,3.4-8.6,5.4c1.8,1.4,3.1,2.4,4.4,3.3
		C138.1,118.6,139.5,115.9,141,113.2z"/>
	<path class="st0" d="M157.7,178.9c-1.1,0-2,0.1-2.9,0c-1.2-0.1-1.9,0.2-2.6,1.3c-1.5,2.5-5,2.2-6.7-0.2c-0.3-0.5-0.8-1-1.3-1
		c-1.3-0.1-2.6,0-4,0c-0.1,0.7-0.1,1.2-0.1,1.7c0,2.4,0.1,2.5,2.5,2.5c4.1,0,8.2,0,12.3,0c3.1,0,3.2-0.1,3.1-3.2
		C157.8,179.7,157.8,179.4,157.7,178.9z"/>
	<path class="st0" d="M146.6,177.9c0,1.4,0.8,2.1,2.1,2.3c1.2,0.2,2.4-0.9,2.4-2.2c0.1-1.3-0.9-2.4-2.2-2.4
		C147.6,175.6,146.6,176.6,146.6,177.9z"/>
	<path class="st0" d="M147.5,127.7c-3.2-0.7-6.1-1.4-9.5-2.2c-0.4,2.9-0.7,5.8-1.1,8.8c3.8,0,7.2,0,10.6,0
		C147.5,131.9,147.5,129.6,147.5,127.7z"/>
	<path class="st0" d="M135.3,128.2c0.9-3,0.4-5.1-2.6-6.5c-0.7-0.3-1.2-0.9-2-1.6c-3.3,4.2-5.3,8.7-5.5,14c3.3,0,6.3,0,9.3,0
		C134.8,132.1,134.7,130.1,135.3,128.2z"/>
	<path class="st0" d="M152.5,176c0.3,0.4,0.7,0.8,1.1,0.8c1.3,0.1,2.6,0,4.1,0c0-0.7,0.1-1.1,0.1-1.5c0-2.7,0-2.8-2.6-2.8
		c-4.1,0-8.1,0-12.2,0c-3.2,0-3.3,0.1-3.1,3.3c0,0.2,0.1,0.4,0.2,0.9c1.2,0,2.4,0.1,3.6,0c0.6-0.1,1.3-0.4,1.6-0.9
		C147.3,173.2,150.4,173.2,152.5,176z"/>
	<path class="st0" d="M138.1,145.7c1.8-0.5,3.2-1,4.6-1.4c1.5-0.4,3.1-0.5,4.8-0.8c0-2.2,0-4.5,0-6.7c-3.5,0-6.9,0-10.6,0
		C137.3,139.9,137.7,142.8,138.1,145.7z"/>
	<path class="st0" d="M120.7,92.7c3.4-0.9,4.8-3,4.2-6.4c-0.5-2.9-2.3-3.9-6.6-3.5c0,5.4,0,10.8,0,16.1c0.8,0,1.5,0,2.4,0
		C120.7,96.7,120.7,94.7,120.7,92.7z M120.7,85.3c1.8,0.1,1.6,1.3,1.6,2.4s0.1,2.3-1.6,2.3C120.7,88.4,120.7,86.9,120.7,85.3z"/>
	<path class="st0" d="M157.9,90.9c0,1.7-0.1,3.4,0,5c0.1,2,1.3,3.2,3.1,3.3c1.8,0.1,3.2-1,3.3-3c0.2-3.5,0.2-7.1,0-10.6
		c-0.1-2.1-1.5-3.2-3.4-3.2c-1.8,0.1-3,1.4-3.1,3.5C157.8,87.6,157.9,89.3,157.9,90.9L157.9,90.9z M160.4,86.3
		c0-0.5,0.5-0.9,0.7-1.4c0.3,0.4,0.8,0.8,0.8,1.3c0.1,1.6,0,3.1,0,4.7l0,0c0,1.5,0.1,3,0,4.5c0,0.5-0.5,0.9-0.7,1.4
		c-0.3-0.4-0.7-0.9-0.8-1.3C160.3,92.4,160.3,89.4,160.4,86.3z"/>
	<path class="st0" d="M152.5,92.7c3.7-1,5-3.2,4.1-6.7c-0.7-2.8-2.9-3.8-6.5-3c0,5.3,0,10.7,0,16c0.8,0,1.5,0,2.4,0
		C152.5,96.8,152.5,94.7,152.5,92.7z M152.6,85.3c1.7,0,1.7,1.2,1.7,2.2c0,1.1,0.2,2.4-1.7,2.5C152.6,88.4,152.6,86.9,152.6,85.3z"
		/>
	<path class="st0" d="M168.7,92.3c0.2,0,0.3,0,0.5,0c0.3,1.7,0.6,3.4,0.9,5c0.3,1.9,0.6,2.1,2.7,1.4c-0.3-1.4-0.5-2.8-0.8-4.2
		c-0.3-1.7-0.7-3.2,0.3-5c1.1-2,0.4-5.3-1.1-6s-3.2-0.8-5.1-1.1c0,5.9,0,11.2,0,16.5c0.8,0,1.5,0,2.5,0
		C168.7,96.6,168.7,94.5,168.7,92.3z M168.6,85.2c1.5,0,1.6,1,1.7,2c0,1.1,0,2.3-1.7,2.7C168.6,88.2,168.6,86.7,168.6,85.2z"/>
	<path class="st0" d="M132.1,152.8c3.1,1.9,5.9,3.6,8.7,5.3c0.1-0.1,0.1-0.3,0.2-0.4c-1.5-2.7-2.9-5.4-4.5-8.3
		C135.2,150.5,133.8,151.5,132.1,152.8z"/>
	<path class="st0" d="M128.5,95.8c0.8,0,1.4,0,2.1,0c0.2,1.1,0.4,2.1,0.5,3.1c0.8,0,1.5,0,2.4,0c-0.8-5-1.6-9.9-2.3-14.8
		c-0.2-1.2-0.7-1.4-1.8-1.5c-1.2,0-1.6,0.4-1.8,1.5c-0.5,3.3-1,6.6-1.5,9.9c-0.2,1.6-0.5,3.2-0.7,4.7C129,100,127.6,96.8,128.5,95.8
		z M129.3,88.5c0.1,0,0.2,0,0.3,0c0.2,1.2,0.4,2.5,0.4,3.7c0,0.3-0.5,0.6-0.7,1c-0.2-0.3-0.6-0.7-0.5-1
		C128.9,90.9,129.1,89.7,129.3,88.5z"/>
	<path class="st0" d="M145.1,99.2c2.8,0.1,4.5-2.5,3.3-5.6c-0.6-1.6-1.7-3-2.6-4.5c-0.5-0.8-1-1.7-1.3-2.6c-0.1-0.5,0.4-1.1,0.6-1.6
		c0.4,0.4,0.7,0.8,1,1.3c0.1,0.2,0.1,0.5,0.2,0.9c0.7-0.1,1.4-0.1,2.3-0.2c0-1.8-0.1-3.4-1.7-3.9c-1-0.4-2.5-0.3-3.4,0.2
		c-1.4,0.8-1.8,2.4-1.4,4c0.3,1,0.8,2.1,1.3,3c0.6,1.1,1.5,2.1,2.1,3.2c0.4,0.7,0.6,1.5,0.7,2.3c0,0.4-0.5,0.9-0.8,1.3
		c-0.4-0.4-0.8-0.7-1.1-1.1c-0.2-0.4-0.2-1-0.4-1.5c-0.8,0.1-1.4,0.1-2.1,0.2C141.5,97.5,142.7,99.1,145.1,99.2z"/>
	<path class="st0" d="M136.7,99.2c2.2,0.3,3.9-0.6,4-2.7c0.1-1.5-0.4-3.2-1-4.6c-0.7-1.6-2-3-2.8-4.6c-0.3-0.6,0.3-1.6,0.4-2.4
		c0.4,0.6,0.7,1.2,1.1,1.8c0.1,0.1,0.1,0.2,0.3,0.4c0.6-0.1,1.3-0.2,2.1-0.2c0-1.8-0.2-3.4-1.9-3.9c-1-0.3-2.5-0.2-3.4,0.4
		c-1.4,0.8-1.7,2.5-1.2,4c0.4,1.3,1.1,2.5,1.8,3.7c0.6,1.2,1.5,2.2,2,3.4c0.3,0.6-0.1,1.5-0.2,2.3c0,0.1-0.7,0.3-0.7,0.2
		c-0.3-0.6-0.6-1.3-0.9-1.9c-0.1-0.2-0.1-0.3-0.2-1.1c-0.9,0.5-2,0.8-2.2,1.3C133.5,97,134.9,98.9,136.7,99.2z"/>
	<path class="st0" d="M135.9,146.4c-0.5-3.2-1-6.4-1.5-9.6c-3,0-5.9,0-9.2,0c0.4,5.4,2.1,10,5.6,13.9c1.6-1.2,3.2-2.3,4.6-3.4
		C135.6,147.1,135.9,146.7,135.9,146.4z"/>
	<path class="st0" d="M162.5,123.6c-0.3,0.2-0.7,0.7-0.6,1c0.4,3.2,1,6.4,1.5,9.7c1.4,0,2.9,0,4.4,0s3.1,0,4.6,0
		c0.2-4.4-2.3-10.8-5.5-14C165.4,121.5,163.9,122.5,162.5,123.6z"/>
	<path class="st0" d="M161.9,146.9c1.6,1.2,3.2,2.4,5.1,3.8c3.4-4.1,5.2-8.6,5.5-13.9c-3.2,0-6.3,0-9.2,0
		C162.8,140.3,162.4,143.6,161.9,146.9z"/>
	<path class="st0" d="M148.9,107.1c-15.7,0-28.4,12.6-28.4,28.3c-0.1,15.7,12.7,28.5,28.3,28.6c15.7,0,28.5-12.7,28.5-28.4
		C177.4,119.9,164.6,107.1,148.9,107.1z M148.9,161.7c-14.4,0-26.1-11.7-26.2-26.1c0-14.4,11.6-26.2,26-26.3
		c14.5-0.1,26.2,11.7,26.3,26.2C175,149.9,163.3,161.6,148.9,161.7z"/>
	<path class="st0" d="M173.5,85.1c0.8,0.1,1.4,0.2,2.3,0.3c0,4.6,0,9.1,0,13.6c0.4,0,0.7,0.1,1,0.1c0.4,0,0.8,0,1.5-0.1
		c0-4.7,0-9.2,0-13.7c0.8-0.1,1.5-0.2,2.2-0.3c0-0.8,0-1.5,0-2.3c-2.4,0-4.6,0-6.9,0C173.5,83.6,173.5,84.3,173.5,85.1z"/>
	<path class="st0" d="M147.6,158.9c0-4.2,0-8.4,0-13.1c-3,0.8-5.8,1.4-8.5,2.1C140,153.2,144.1,158.3,147.6,158.9z"/>
	<path class="st0" d="M156.8,157.9c3.2-1.1,6-2.8,8.6-5.3c-1.5-1.1-2.8-2.1-4.1-3C159.7,152.4,158.3,155.1,156.8,157.9z"/>
	<path class="st0" d="M293.6,110c-6-19.3-23.3-16.7-31.3-12.7s-15.3,14-19.3-2s5.3-60.7,10.7-76C234.4,11.3,201,7.3,185,8
		s-16,13.3-11.3,17.3s24.7,34.7-25.3,35.3c-50,0.7-28.7-36.7-28.7-36.7s8.7-15.3-3.3-16c-31.3-3.3-78,12.7-78,12.7
		c10,28,14,43.3,15.3,67.3c0.7,23.3-14,17.3-24,11.3s-28-10-28,28.7s18,36.7,32,26.7s16,2.7,19.3,11.3c3.3,8.7,0.7,45.3-11.3,69.3
		c30,13.3,66.7,17.3,78.7,10s3.3-11.3,1.3-15.3s-4.7-13.3-4-16s-3.3-16,34-17.3s32,28,24,32s-5.3,23.3,7.3,22
		c45.3-2.7,57.3-8,73.3-15.3c-12-28.7-12.7-58.7-12-70.7s9.3-16,16.7-10.7c16,13.3,28.7,4,30.7-1.3
		C293.6,147.3,299.6,129.3,293.6,110z M195.6,181.8c0,4.8-2.7,7.4-7.4,7.4c-27.5,0-55.1,0-82.6,0c-2.8,0-3.4-0.6-3.4-3.3
		c0-19,0-37.9,0-56.9c0-18.9,0-37.8,0-56.7c0-2.8,0.6-3.3,3.4-3.3c27.5,0,55.1,0,82.6,0c4.8,0,7.4,2.6,7.4,7.4
		C195.6,111.5,195.6,146.7,195.6,181.8z"/>
	<path class="st0" d="M139.1,123.2c2.7,0.7,5.5,1.3,8.5,2c0-4.7,0-8.8,0-13.1C143.9,112.9,139.8,118.2,139.1,123.2z"/>
	<path class="st0" d="M165.7,118.2c-3.1-1.9-5.9-3.6-8.7-5.3c0,0.1-0.1,0.3-0.1,0.4c1.5,2.7,2.9,5.4,4.4,8.3
		C162.6,120.6,163.9,119.6,165.7,118.2z"/>
	<path class="st0" d="M150.2,111.8c0,4.6,0,8.8,0,13.4c3-0.7,5.8-1.4,8.8-2.2C157.1,118.2,155.3,113.9,150.2,111.8z"/>
	<path class="st0" d="M159.7,125.5c-3.4,0.8-6.4,1.5-9.5,2.2c0,2,0,4.2,0,6.5c3.6,0,7,0,10.7,0C160.4,131.1,160,128.2,159.7,125.5z"
		/>
	<path class="st0" d="M150.2,145.8c0,4.7,0,8.8,0,13.1c3.5-0.1,7.8-6.6,8.5-11C155.9,147.2,153.1,146.5,150.2,145.8z"/>
	<path class="st0" d="M159.7,145.6c0.4-2.8,0.7-5.7,1.1-8.7c-3.7,0-7.1,0-10.7,0c0,2.3,0,4.5,0,6.5
		C153.4,144.1,156.4,144.8,159.7,145.6z"/>
</g>
</svg>
