<?xml version="1.0" encoding="utf-8"?>
<!-- Generator: Adobe Illustrator 19.2.1, SVG Export Plug-In . SVG Version: 6.00 Build 0)  -->
<svg version="1.1" id="Режим_изоляции"
	 xmlns="http://www.w3.org/2000/svg" xmlns:xlink="http://www.w3.org/1999/xlink" x="0px" y="0px" viewBox="0 0 533 436"
	 style="enable-background:new 0 0 533 436;" xml:space="preserve">
<style type="text/css">
	.st0{fill:#3454A7;}
</style>
<g>
	<path class="st0" d="M14,309.1c2.3-8.4,4.7-16.7,7-25.1c6.4-23.5,12.7-47.1,19-70.6c6.5-24,12.7-48.1,19.5-72.1
		c3.7-13.3,7.9-26.5,12.6-39.5c4.2-11.5,11.3-21.3,21.2-29c2.1-1.6,3.1-5.2,3.6-8.1c4-24,24.5-44.9,49-48.7
		c22.6-3.5,42,2.3,57.6,19.2c9.8,10.6,15.2,23.3,15.4,37.7c0.1,7-1.2,14-1.8,21c-0.1,1.3-0.3,3.1,0.4,4c3.8,4.6,7.9,8.9,12.2,13.6
		c12.5-9,26.1-13.3,41.3-13.5c15.3-0.2,28.7,5.3,41.1,13.2c3.8-4,7.4-7.6,10.7-11.5c0.7-0.8,0.8-2.6,0.5-3.8
		c-3.8-16.1-3.8-32.1,3.9-47c13.1-25.3,36.4-36.5,63.2-33.6c27.5,3,49,23.9,52.7,50.5c0.8,5.5,5.6,7.5,8.9,10.5
		c7.6,6.8,13.2,14.9,17,24.2c12.5,31,19.5,63.7,28.1,95.9c8.7,32.7,17.2,65.4,25.8,98.2c1.3,4.8,2.2,9.7,3.3,14.5c0,9,0,18,0,27
		c-0.4,2.2-0.7,4.3-1.2,6.5c-3.5,15.2-9.4,29.5-18.9,42c-9.4,12.4-21,22.4-34.8,29.3c-10.6,5.4-21.8,9.8-33.9,10.2
		c-10.8,0.3-21.9,1.3-32.5-0.5c-17.3-3-33-10.5-46.9-21.9c-13.7-11.3-23.7-25-29.7-41.5c-3.7-10.1-5.7-20.8-8.4-30.6
		c-33.1,19-66.8,18.9-100-0.3c-1.7,8.1-2.5,16.6-5.3,24.6c-8.1,23.7-22,42.9-43.8,56.1c-22.7,13.7-47.2,18.1-72.9,13.8
		c-15.9-2.6-30.6-9-43.4-19c-15.9-12.3-28.1-27.5-34.5-46.9c-2.3-7.2-4-14.6-6-21.8C14,327.1,14,318.1,14,309.1z M486.5,240.5
		c-5.1-19-9.6-36.8-14.5-54.5c-6.2-22.4-12.4-44.8-19-67.1c-3-10.1-7.5-20-15.7-26.8c-15.1-12.5-33.1-14.9-51.9-11.6
		c-13,2.3-23.5,9.7-32.7,18.7c-8.6,8.4-16.4,17.7-24.6,26.6c-8.2,8.9-17.6,11.7-28.8,3.3c-17.3-13-39.6-13.1-57.2,0.5
		c-7.9,6.1-16.7,6.5-24.1-0.2c-8-7.3-15.9-14.8-22.9-23c-11.8-13.9-25-24.6-44.2-26.6c-12.1-1.3-23.5,0.5-34.6,4.7
		c-14.8,5.7-22.8,18.2-27,32.5c-9.6,32.1-18.2,64.5-27.1,96.8c-2.3,8.2-4.1,16.4-6.4,25.4c14.5-10.1,29.5-17.1,46.3-18.1
		c11.5-0.7,23.2-1.2,34.5,0.5c15.2,2.3,29.2,8.8,41.6,18.4c13.4,10.4,24.4,22.8,31.1,38.7c2.2,5.2,3.6,11,6.8,15.6
		c11.9,17.6,29,26.5,49.9,27.6c15.5,0.8,30.4-2.4,43.1-12c6.9-5.2,13.8-11,16.7-19.5c6.8-19.8,18.1-36.2,34.5-49.2
		c15.4-12.2,33-19.4,52.4-21.1c21.1-1.9,41.6,1.3,60.5,11.9C477.3,234.5,481.4,237.3,486.5,240.5z M423.5,241.1
		c-44.5,0.4-81,36.1-81.2,80.5c-0.2,46.8,35.6,82,81.2,82.3c45.8,0.2,80.4-36.7,81.4-79.2C506.1,277.9,467.9,241.2,423.5,241.1z
		 M35,322.7c0,1.7-0.1,3.3,0,5c0.2,1.8,0.7,3.5,0.9,5.3c2.8,23.8,14.8,42.3,33.9,55.9c16.1,11.5,34.4,17.4,54.5,14.1
		c8.8-1.5,17.7-3.3,25.8-6.8c15.9-6.7,27.9-18.1,36.6-33.2c9.8-17,13.4-35.2,10-54.3c-3.8-21.1-14.5-38.4-31.9-51.3
		c-13.6-10.1-28.9-15.7-45.9-16.3c-16.2-0.6-31.2,3.7-44.9,12.1c-12.1,7.4-22.2,17.3-28.6,30.3c-2.6,5.2-2.8,11.5-5.6,16.5
		C35.7,307.3,35.3,314.9,35,322.7z M342.2,78.7c28-21.4,46.5-23.2,76.5-19c-4.8-13.6-24-26.8-44-22.6
		C355.8,41.1,341.8,57.9,342.2,78.7z M197.5,77.7c0.7-16.1-9.9-36.8-36.3-41.5c-13.7-2.4-35.6,10.1-40.1,24.1
		c13.6-2.4,27-3.6,40.3-0.8C174.7,62.2,186.6,68.3,197.5,77.7z"/>
	<path class="st0" d="M311,261.3c1.6,21.3-18.5,42.7-43.9,41.1c-18.1-1.2-40.2-17.6-38.2-44.4c1.6-21,18.3-38.6,41.3-38.4
		C293.8,219.6,312,238.4,311,261.3z M270.2,241.1c-10.2-0.1-20.1,9.6-20.2,19.6c-0.1,10.2,9.4,20.2,19.5,20.4
		c10.4,0.2,20.4-9.6,20.5-19.9C290,251.1,280.3,241.2,270.2,241.1z"/>
	<path class="st0" d="M432.1,384.5c-19.7-1.5-35.2-8.5-46.8-23.5c-8.6-11.1-13.4-23.5-13.3-37.6c0.1-8.7,7-13.2,15.2-10.3
		c4.3,1.5,5,5,5.8,8.8c1.3,6.2,2,12.7,4.7,18.3c7,14.7,19.5,22,35.6,22.9c5,0.3,8.5,2.6,10.4,6.9c1.9,4.2,0.1,10.4-3.9,12.5
		C437.3,383.8,434,384,432.1,384.5z"/>
	<path class="st0" d="M113,384.1c-18.7-0.7-33.9-8.9-45.5-23.3c-8.8-10.7-12.5-23.7-13.3-37.5c-0.3-6,4.4-10.9,10.6-11.2
		c5.8-0.3,11.1,4,11.1,10.1c0.1,11.1,4.1,20.6,11.4,28.3c7.5,7.8,17.1,12.3,28.3,12.6c8.8,0.3,13.8,7.7,10,15.6
		C123.2,383.8,118.3,384.7,113,384.1z"/>
</g>
</svg>
