<?xml version="1.0" encoding="utf-8"?>
<!-- Generator: Adobe Illustrator 19.2.1, SVG Export Plug-In . SVG Version: 6.00 Build 0)  -->
<svg version="1.1" id="Режим_изоляции"
	 xmlns="http://www.w3.org/2000/svg" xmlns:xlink="http://www.w3.org/1999/xlink" x="0px" y="0px" viewBox="0 0 298 371"
	 style="enable-background:new 0 0 298 371;" xml:space="preserve">
<style type="text/css">
	.st0{fill:#3454A7;}
</style>
<g>
	<path class="st0" d="M148.9,93.9c-33.9-0.2-58.7,16-77.5,42.9c-6.9,9.8-12.9,20.2-19.9,29.9c-7.4,10.2-16.6,18.7-27.4,25.3
		c-6.3,3.9-12.2,3-15.3-2.1c-3.2-5.2-1.4-10.6,4.9-14.6c12.6-8.1,21.8-19.3,30-31.6c8.1-12.2,16.2-24.6,25.9-35.4
		c45.6-50.6,132.3-43.6,172.4,12.2c17.8,24.7,23.3,51.3,17.5,80.9c-2.2,11.3-3.4,22.7-5.3,34.1c-2.5,14.8,1.4,27.7,11.1,39
		c3.8,4.4,8,8.5,11.9,12.8c3.5,4,3.4,9.5,0,13.2s-9.2,4.6-13.1,1.2c-14.4-12.9-27.1-27.4-29.4-47.3c-1.3-11,0.7-22.5,1.8-33.8
		c1.1-10.8,2.8-21.5,4.6-32.1c4.2-24-4.8-43.9-19.7-61.6C202.7,104.2,178,94.2,148.9,93.9z"/>
	<path class="st0" d="M195.8,195.6c-0.3,14.3-5.4,27.1-12.7,39.3c-14.5,24.3-33.6,44.8-54.6,63.4c-18.7,16.6-38.4,32-57.8,47.7
		c-2.3,1.9-5.6,3.3-8.5,3.5c-4.3,0.3-7.6-2.4-8.9-6.7c-1.3-4.4,0-8.2,3.7-11c9.5-7.3,19.2-14.4,28.5-22c25.5-20.8,49.8-42.8,69.9-69
		c7.5-9.8,14.1-20.2,18.2-32c3.5-9.8,2.9-19.3-1.5-28.6c-8.1-17.2-27.4-21.3-41.5-8.6c-3.6,3.3-7.1,7.4-9,11.8
		c-14.8,34.7-38.8,61.4-69.6,82.5c-9.5,6.5-18.7,13.4-28.1,20c-6.1,4.3-11.8,3.7-15.3-1.4c-3.3-4.9-1.8-10.4,3.9-14.6
		c12.5-9.1,25-18.3,37.6-27.3c23.7-17.1,41-39.3,52.7-66c4.3-9.8,10.9-17.9,19.8-23.9c23.4-15.6,52.9-8.3,66,16.4
		C193,177.3,195.4,186.1,195.8,195.6z"/>
	<path class="st0" d="M198.7,248.9c1.7-9.8,4.6-24.6,6.7-39.6c1.4-9.5,2.6-19.2,2.2-28.8c-1.3-29.1-29.1-49-51.1-51.6
		c-22.9-2.7-41,6.4-55.5,23.4c-5.4,6.4-10.6,13.6-13.9,21.2c-9.7,22.7-26,39.6-45,54.4c-5.9,4.6-12.1,8.8-18.3,13
		c-6,4-12.1,3.1-15.3-2c-3.1-4.9-1.4-10.5,4.5-14.4c16-10.6,31.3-22.2,43.2-37.5c4-5.1,7.4-10.7,10.1-16.5
		c10.1-21.6,23.4-40.5,44.9-52c27.3-14.6,54.7-13.5,80.6,3.2c26,16.8,38.5,41.1,35.3,72.2c-1.6,16.2-5.1,32.2-7.7,48.3
		c-2.5,15.1-0.1,29.5,5.8,43.5c4.7,11.3,12.7,19.4,24.4,23.6c1.3,0.5,2.5,0.9,3.7,1.4c5.7,2.4,8.3,7.5,6.3,12.8
		c-1.8,5-7.1,7.4-12.7,5.7c-17.2-5.4-30.3-15.9-38.2-32.2C202.3,283.6,199,269.3,198.7,248.9z"/>
	<path class="st0" d="M156.6,39.3c36.6,0,72.9,17.9,103.5,48.4c6.2,6.2,11.8,13.1,17.2,20.1c4,5.2,3.1,11.3-1.6,14.6
		c-4.6,3.3-10.3,2.1-14.3-3.2c-17.5-23-39.1-40.8-66.1-51.7c-39.8-16.1-104-13-142.3,36.6c-7.8,10.1-15.1,20.7-22.4,31.2
		c-4.1,5.9-9.5,7.9-14.7,4.7c-5-3.1-6-8.8-2.2-14.9C26.6,104.5,40.8,84.7,60,69.2C84.3,49.5,114.2,39.6,156.6,39.3z"/>
	<path class="st0" d="M147.9,5.1c41.9,0.1,79.6,12.2,112.8,38.1c1,0.8,2.1,1.6,3.1,2.5c4,3.8,4.4,9.5,1.2,13.5
		c-3.3,4.1-8.8,4.9-13.4,1.7c-4.4-3-8.5-6.4-12.9-9.4c-48.8-33.6-120.1-36.3-168.5-5.6C60,52.4,51.3,61.3,42.4,69.4
		c-4.8,4.5-10.1,5.7-14.6,1.9c-4.4-3.7-4.8-9.6-0.5-14.6C44.4,36.4,66.1,23,90.9,14.3C109.3,7.8,128.4,5.1,147.9,5.1z"/>
	<path class="st0" d="M35.4,325.6c-5.5-0.2-8.6-2.1-10.3-6s-1-7.6,2-10.6c1.5-1.5,3.3-2.7,5.1-4c30-21.8,58.1-45.7,81.7-74.5
		c10-12.3,19.2-25.1,25.7-39.7c2.5-5.7,7.8-7.9,13.1-5.7c5.1,2.1,7.3,7.6,4.9,13.4c-7.4,17.5-18.6,32.7-30.7,47.1
		c-25,29.9-54.4,54.7-86,77.2C39.1,324.2,36.6,325,35.4,325.6z"/>
	<path class="st0" d="M294.5,200.4c-2.6,18.4-5.1,36.9-8,55.3c-1,6.5-6.3,10.1-11.7,8.9c-6-1.3-9-6.2-7.6-13
		c4.2-19.8,6.8-39.7,5.9-60c-0.6-13.9-2.6-27.5-7.9-40.5c-2.3-5.8-0.2-11.3,4.9-13.4c5.4-2.2,10.7,0.1,13.3,6.2
		c6.4,14.9,8.4,30.8,9.3,46.8c0.2,3.2,0,6.3,0,9.5C293.4,200.2,293.9,200.3,294.5,200.4z"/>
	<path class="st0" d="M133,315.9c15.8,0.8,25.3,6.9,31.5,17.3c3.7,6.2,6.3,13.2,8.8,20c2,5.5-1.1,10.7-6.2,12.4
		c-5.2,1.6-10.2-1-12.4-6.4s-4.1-10.9-7.1-15.9c-5.1-8.4-11.9-9.9-19.7-4.2c-6.3,4.6-11.8,10.1-17.4,15.6c-4.9,4.9-10.5,6-15,2.2
		s-4.9-10.2-0.1-15c7.2-7.1,14.6-14.1,22.8-20C123.2,318.5,129.9,317.2,133,315.9z"/>
	<path class="st0" d="M177,262.2c9.4-0.2,14.6,6.9,11.5,13.5c-9.6,20.4-1.9,36.4,12.1,51c3.6,3.7,7.9,6.7,11.6,10.2
		c4,3.7,4.4,9,1.4,13.1c-3,4-8.7,5.5-12.9,2.4c-19.4-14.1-34.2-31.3-36-56.6c-0.7-9.6,0.8-19.1,5.7-27.5
		C172.2,265.3,175.7,263.4,177,262.2z"/>
</g>
</svg>
