<?xml version="1.0" encoding="utf-8"?>
<!-- Generator: Adobe Illustrator 19.2.1, SVG Export Plug-In . SVG Version: 6.00 Build 0)  -->
<svg version="1.1" id="Слой_1" xmlns="http://www.w3.org/2000/svg" xmlns:xlink="http://www.w3.org/1999/xlink" x="0px" y="0px"
	 viewBox="0 0 205 277" style="enable-background:new 0 0 205 277;" xml:space="preserve">
<style type="text/css">
	.st0{fill:#3454A7;}
</style>
<g>
	<path class="st0" d="M16.7,272.8c0-3.4,0-6.9,0-10.3c0.1-5.5,4.1-9.6,9.6-9.8c3.4-0.1,6.8,0,10.6,0c0-3.1,0-5.9,0-8.7
		c0-6.9,2.7-10.3,9.5-11.6c1.8-0.3,1.7-1.4,1.7-2.6c0.3-10.6,2.2-20.9,5.5-31c5.1-15.7,13.8-29.2,25-41.3c3.5-3.8,7.1-7.5,10.4-11.4
		c3.5-4.1,3.5-6.4,0-10.4c-5.7-6.6-11.7-12.8-17.2-19.5C58.4,99.8,50.9,80.9,48.7,59.9c-0.3-2.7-0.5-5.5-0.6-8.2
		c0-1.4-0.4-2.1-2-2.3c-6.2-1.1-9.2-4.7-9.3-11c0-2.9,0-5.8,0-9.2c-2.9,0-5.6-0.2-8.3,0c-7.8,0.6-12.6-4.9-12-11.9
		c0.2-2.7,0-5.5,0-8.2c60.8,0,121.6,0,182.4,0c0,3.1,0,6.2,0,9.3c-0.1,6.8-4,10.8-10.9,10.9c-3,0-6,0-9.3,0c0,2.4,0,4.5,0,6.6
		c0,9.4-1.7,11.7-10.7,14.1c-0.6,5.3-1,10.7-1.9,16c-3.3,20.9-12.2,39.1-26.3,54.9c-4.4,4.9-9,9.5-13.3,14.4
		c-4.2,4.7-4.2,6.9,0,11.6c5.7,6.5,11.8,12.7,17.3,19.4c13.3,16.1,20.8,34.7,23.1,55.5c0.2,1.8,0.4,3.6,0.5,5.4
		c0.1,1.7,0.2,3.4,0.4,5.2c0.7,0.1,1.3,0.2,1.9,0.3c5.6,1,8.8,4.7,9,10.5c0.1,3.1,0,6.2,0,9.7c2.9,0,5.6,0.2,8.3,0
		c7.8-0.6,12.6,4.9,12,11.9c-0.2,2.7,0,5.5,0,8.2C138.3,272.8,77.5,272.8,16.7,272.8z M157.9,232.1c0-1.1,0.1-2.1,0-3
		c-1.1-7.1-1.8-14.3-3.5-21.3c-3.5-14.8-11-27.7-21-39.1c-5.1-5.9-10.6-11.5-15.6-17.4c-5.6-6.7-5.6-14.1-0.1-20.9
		c3.5-4.2,7.3-8.3,11-12.2c14.9-15.5,24.9-33.5,27.9-55.1c0.6-4.5,1-8.9,1.5-13.5c-33.7,0-66.9,0-100.2,0c0.3,8.4,1.4,16.4,3.4,24.3
		c4.4,17.1,13.4,31.4,25.3,44.2c3.7,4,7.5,8,11,12.3c5.4,6.7,5.4,14,0,20.7c-3.5,4.2-7.2,8.3-11,12.3c-14.7,15.6-24.5,33.6-27.5,55
		c-0.6,4.5-1,9-1.4,13.6c4.4,0,8.3,0,12.3,0c0.1-0.6,0.2-1,0.2-1.4c0.2-6.8,2.9-12.6,7.2-17.8c7.9-9.4,18.3-15.1,29.5-19.6
		c0.8-0.3,2.1,0,2.9,0.4c5.7,3.3,11.7,6.3,17,10.1c9.7,7,18.6,14.9,19.2,28.3C149.8,232.1,153.7,232.1,157.9,232.1z"/>
	<path class="st0" d="M108.5,129.4c-8.3-6.8-15.5-13.6-20.7-22.1c-1.4-2.3-2.4-4.9-3.1-7.5c-1.1-3.9,0-5.5,4-6.5
		c1.2-0.3,2.5-0.5,3.8-0.5c10.9,0,21.8,0.1,32.7,0.2c0.8,0,1.7,0.2,2.5,0.4c3.5,0.9,4.3,2.1,3.8,5.7c-0.8,5.9-3.8,10.9-7.7,15.2
		C119,119.5,113.7,124.3,108.5,129.4z"/>
</g>
</svg>
