<?xml version="1.0" encoding="utf-8"?>
<!-- Generator: Adobe Illustrator 19.2.1, SVG Export Plug-In . SVG Version: 6.00 Build 0)  -->
<svg version="1.1" id="Слой_1" xmlns="http://www.w3.org/2000/svg" xmlns:xlink="http://www.w3.org/1999/xlink" x="0px" y="0px"
	 viewBox="0 0 581 529" style="enable-background:new 0 0 581 529;" xml:space="preserve">
<style type="text/css">
	.st0{fill:#3454A7;}
</style>
<g>
	<path class="st0" d="M18,445.1c0-119.3,0-238.7,0-358c2.7-5.7,7.2-7.9,13.5-8.2c28.3-1,51.4-24.6,52.4-53
		C84.2,16.8,88.1,13,97.3,13c130.4,0,260.8,0,391.3,0c9.2,0,13.1,3.8,13.4,12.9c1,28.4,24.1,52,52.4,52.9c6.4,0.2,10.8,2.5,13.5,8.2
		c0,119.3,0,238.7,0,358c-2.7,5.7-7.1,8-13.5,8.2c-27.9,0.8-51.4,24.5-52.4,52.4c-0.4,9.8-4,13.4-13.9,13.4
		c-130.1,0-260.2,0-390.3,0c-9.8,0-13.5-3.6-13.9-13.4c-1-28-24.5-51.6-52.4-52.5C25.1,453,20.8,450.7,18,445.1z M545.7,431.6
		c0-110.5,0-220.9,0-331.2c-28.2-4.7-57.4-25.1-65.2-65c-125,0-250.1,0-375.1,0c-5.4,31.4-28.2,58.2-65.2,65.2
		c0,110.4,0,220.8,0,331.3c16.8,2.8,31.2,9.9,43.1,21.9c12,12,19.1,26.6,22,43.2c125.4,0,250.3,0,375.1,0
		C488.2,461.1,509.7,439.4,545.7,431.6z"/>
	<path class="st0" d="M292.9,343.1c-57.2,0-114.3,0-171.5,0c-1.5,0-3,0.1-4.5,0c-6.2-0.4-10.8-4.9-10.9-10.9
		c-0.1-5.9,4.4-10.6,10.6-11.1c1.5-0.1,3,0,4.5,0c114.5,0,229,0,343.5,0c10.1,0,15.3,3.6,15.4,10.9c0.1,7.4-5.2,11.1-15.6,11.1
		C407.2,343.1,350,343.1,292.9,343.1z"/>
	<path class="st0" d="M395.3,135.4c8.3,0,16.1,0,24.3,0c9.1,43.9,18.2,87.6,27.4,131.6c-7,0-13.7,0-20.8,0c-2.2-11-4.3-22-6.6-33.4
		c-8.7,0-17.4,0-26.5,0c-2.2,11-4.3,22-6.5,33.3c-6.9,0-13.6,0-20.8,0C375.6,222.9,385.4,179.3,395.3,135.4z M416.9,215.1
		c-3.4-19.9-6.6-39.1-10.1-59.7c-3.5,20.7-6.7,40-10,59.7C403.7,215.1,410.1,215.1,416.9,215.1z"/>
	<path class="st0" d="M223.7,136.2c-10.3,44.2-20.5,87.9-30.7,131.8c-8,0-15.8,0-24.1,0c-9.9-44.1-19.9-88.2-29.8-132.6
		c7.8,0,15.2,0,23.3,0c6.3,35.6,12.5,71.2,18.8,106.9c0.2,0,0.4,0.1,0.6,0.1c1.4-9.4,2.5-18.8,4.2-28.1c4.5-25,9.3-50.1,14.1-75.1
		c0.2-1.2,1.9-2.9,3-2.9C209.7,136.1,216.4,136.2,223.7,136.2z"/>
	<path class="st0" d="M221.5,387.1c33.5,0,67,0,100.5,0c1.7,0,3.3-0.1,5,0.1c5.6,0.6,9.9,5.1,10,10.7c0.1,5.7-4.2,10.6-10,11.2
		c-1.6,0.2-3.3,0.1-5,0.1c-67,0-134,0-201,0c-1.7,0-3.3,0.1-5-0.1c-5.8-0.6-10.1-5.5-10-11.2c0.1-5.5,4.3-10.1,10-10.7
		c1.7-0.2,3.3-0.1,5-0.1C154.5,387.1,188,387.1,221.5,387.1z"/>
	<path class="st0" d="M291.4,247.3c8.6,1.1,16.4,3.4,24.1,3c15.3-0.9,22.5-17.3,13.4-29.8c-3.5-4.7-8.7-8.1-13.1-12.1
		c-6.6-6.1-14.2-11.3-19.5-18.4c-15.5-20.7-2.9-49.8,22.7-53.9c8.7-1.4,17.2-1,25.6,2c2.3,0.8,3.6,1.8,2.8,4.7
		c-1.2,4.5-1.8,9.1-2.5,13.1c-6-1-11.7-2.4-17.5-2.8c-6.4-0.4-12,2.1-14.8,8.1c-3,6.4-3.2,13.3,1.5,18.9c3.6,4.2,8.2,7.7,12.9,10.8
		c11,7.2,20.4,15.7,24,28.9c6.7,24.5-8.5,46.6-33.7,48.1c-8.4,0.5-17.1-1.6-25.6-2.9c-3.4-0.5-4.4-2.8-3.2-6.3
		C289.8,254.6,290.6,250.3,291.4,247.3z"/>
	<path class="st0" d="M246,266.8c0-43.8,0-87.4,0-131.3c6.7,0,13.3,0,20.3,0c0,43.6,0,87.3,0,131.3
		C259.7,266.8,253.1,266.8,246,266.8z"/>
	<path class="st0" d="M430.5,409.1c-12.3,0-24.7,0-37,0c-7.6,0-12.6-4.6-12.5-11.2c0.1-6.4,5-10.7,12.5-10.7c24.7,0,49.3,0,74,0
		c7.6,0,12.6,4.6,12.5,11.2c-0.2,6.4-5.1,10.7-12.5,10.7C455.2,409.1,442.8,409.1,430.5,409.1z"/>
</g>
</svg>
